<svg xmlns="http://www.w3.org/2000/svg" xmlns:xlink="http://www.w3.org/1999/xlink" contentStyleType="text/css" data-diagram-type="DESCRIPTION" height="484px" preserveAspectRatio="none" style="width:728px;height:484px;background:#FFFFFF;" version="1.1" viewBox="0 0 728 484" width="728px" zoomAndPan="magnify"><defs/><g><!--entity API Client--><g class="entity" data-entity="API Client" data-source-line="2" data-uid="ent0002" id="entity_API Client"><rect fill="#90EE90" height="46.2969" rx="2.5" ry="2.5" style="stroke:#181818;stroke-width:0.5;" width="107.1289" x="48.26" y="7"/><rect fill="#90EE90" height="10" style="stroke:#181818;stroke-width:0.5;" width="15" x="135.3889" y="12"/><rect fill="#90EE90" height="2" style="stroke:#181818;stroke-width:0.5;" width="4" x="133.3889" y="14"/><rect fill="#90EE90" height="2" style="stroke:#181818;stroke-width:0.5;" width="4" x="133.3889" y="18"/><text fill="#000000" font-family="sans-serif" font-size="14" lengthAdjust="spacing" textLength="67.1289" x="63.26" y="39.9951">API Client</text></g><!--entity EisenKan Client--><g class="entity" data-entity="EisenKan Client" data-source-line="3" data-uid="ent0003" id="entity_EisenKan Client"><rect fill="#90EE90" height="46.2969" rx="2.5" ry="2.5" style="stroke:#181818;stroke-width:0.5;" width="149.1289" x="424.26" y="7"/><rect fill="#90EE90" height="10" style="stroke:#181818;stroke-width:0.5;" width="15" x="553.3889" y="12"/><rect fill="#90EE90" height="2" style="stroke:#181818;stroke-width:0.5;" width="4" x="551.3889" y="14"/><rect fill="#90EE90" height="2" style="stroke:#181818;stroke-width:0.5;" width="4" x="551.3889" y="18"/><text fill="#000000" font-family="sans-serif" font-size="14" lengthAdjust="spacing" textLength="109.1289" x="439.26" y="39.9951">EisenKan Client</text></g><!--entity EisenKan Admin Client--><g class="entity" data-entity="EisenKan Admin Client" data-source-line="4" data-uid="ent0004" id="entity_EisenKan Admin Client"><rect fill="#90EE90" height="46.2969" rx="2.5" ry="2.5" style="stroke:#181818;stroke-width:0.5;" width="198.4434" x="190.6" y="7"/><rect fill="#90EE90" height="10" style="stroke:#181818;stroke-width:0.5;" width="15" x="369.0434" y="12"/><rect fill="#90EE90" height="2" style="stroke:#181818;stroke-width:0.5;" width="4" x="367.0434" y="14"/><rect fill="#90EE90" height="2" style="stroke:#181818;stroke-width:0.5;" width="4" x="367.0434" y="18"/><text fill="#000000" font-family="sans-serif" font-size="14" lengthAdjust="spacing" textLength="158.4434" x="205.6" y="39.9951">EisenKan Admin Client</text></g><!--entity Feed Manager--><g class="entity" data-entity="Feed Manager" data-source-line="7" data-uid="ent0005" id="entity_Feed Manager"><rect fill="#FFFF99" height="46.2969" rx="2.5" ry="2.5" style="stroke:#181818;stroke-width:0.5;" width="139.9824" x="38.83" y="113.29"/><rect fill="#FFFF99" height="10" style="stroke:#181818;stroke-width:0.5;" width="15" x="158.8124" y="118.29"/><rect fill="#FFFF99" height="2" style="stroke:#181818;stroke-width:0.5;" width="4" x="156.8124" y="120.29"/><rect fill="#FFFF99" height="2" style="stroke:#181818;stroke-width:0.5;" width="4" x="156.8124" y="124.29"/><text fill="#000000" font-family="sans-serif" font-size="14" lengthAdjust="spacing" textLength="99.9824" x="53.83" y="146.2851">Feed Manager</text></g><!--entity Task Manager--><g class="entity" data-entity="Task Manager" data-source-line="8" data-uid="ent0006" id="entity_Task Manager"><rect fill="#FFFF99" height="46.2969" rx="2.5" ry="2.5" style="stroke:#181818;stroke-width:0.5;" width="138.3486" x="213.65" y="113.29"/><rect fill="#FFFF99" height="10" style="stroke:#181818;stroke-width:0.5;" width="15" x="331.9986" y="118.29"/><rect fill="#FFFF99" height="2" style="stroke:#181818;stroke-width:0.5;" width="4" x="329.9986" y="120.29"/><rect fill="#FFFF99" height="2" style="stroke:#181818;stroke-width:0.5;" width="4" x="329.9986" y="124.29"/><text fill="#000000" font-family="sans-serif" font-size="14" lengthAdjust="spacing" textLength="98.3486" x="228.65" y="146.2851">Task Manager</text></g><!--entity Notification Manager--><g class="entity" data-entity="Notification Manager" data-source-line="9" data-uid="ent0007" id="entity_Notification Manager"><rect fill="#FFFF99" height="46.2969" rx="2.5" ry="2.5" style="stroke:#181818;stroke-width:0.5;" width="186.1455" x="386.75" y="113.29"/><rect fill="#FFFF99" height="10" style="stroke:#181818;stroke-width:0.5;" width="15" x="552.8955" y="118.29"/><rect fill="#FFFF99" height="2" style="stroke:#181818;stroke-width:0.5;" width="4" x="550.8955" y="120.29"/><rect fill="#FFFF99" height="2" style="stroke:#181818;stroke-width:0.5;" width="4" x="550.8955" y="124.29"/><text fill="#000000" font-family="sans-serif" font-size="14" lengthAdjust="spacing" textLength="146.1455" x="401.75" y="146.2851">Notification Manager</text></g><!--entity Rule Engine--><g class="entity" data-entity="Rule Engine" data-source-line="12" data-uid="ent0008" id="entity_Rule Engine"><rect fill="#FFA500" height="46.2969" rx="2.5" ry="2.5" style="stroke:#181818;stroke-width:0.5;" width="123.5352" x="316.06" y="219.59"/><rect fill="#FFA500" height="10" style="stroke:#181818;stroke-width:0.5;" width="15" x="419.5952" y="224.59"/><rect fill="#FFA500" height="2" style="stroke:#181818;stroke-width:0.5;" width="4" x="417.5952" y="226.59"/><rect fill="#FFA500" height="2" style="stroke:#181818;stroke-width:0.5;" width="4" x="417.5952" y="230.59"/><text fill="#000000" font-family="sans-serif" font-size="14" lengthAdjust="spacing" textLength="83.5352" x="331.06" y="252.5851">Rule Engine</text></g><!--entity Validation Engine--><g class="entity" data-entity="Validation Engine" data-source-line="13" data-uid="ent0009" id="entity_Validation Engine"><rect fill="#FFA500" height="46.2969" rx="2.5" ry="2.5" style="stroke:#181818;stroke-width:0.5;" width="162.6504" x="47.5" y="219.59"/><rect fill="#FFA500" height="10" style="stroke:#181818;stroke-width:0.5;" width="15" x="190.1504" y="224.59"/><rect fill="#FFA500" height="2" style="stroke:#181818;stroke-width:0.5;" width="4" x="188.1504" y="226.59"/><rect fill="#FFA500" height="2" style="stroke:#181818;stroke-width:0.5;" width="4" x="188.1504" y="230.59"/><text fill="#000000" font-family="sans-serif" font-size="14" lengthAdjust="spacing" textLength="122.6504" x="62.5" y="252.5851">Validation Engine</text></g><!--entity Files Access--><g class="entity" data-entity="Files Access" data-source-line="16" data-uid="ent0010" id="entity_Files Access"><rect fill="#C0C0C0" height="46.2969" rx="2.5" ry="2.5" style="stroke:#181818;stroke-width:0.5;" width="124.3623" x="152.64" y="325.89"/><rect fill="#C0C0C0" height="10" style="stroke:#181818;stroke-width:0.5;" width="15" x="257.0023" y="330.89"/><rect fill="#C0C0C0" height="2" style="stroke:#181818;stroke-width:0.5;" width="4" x="255.0023" y="332.89"/><rect fill="#C0C0C0" height="2" style="stroke:#181818;stroke-width:0.5;" width="4" x="255.0023" y="336.89"/><text fill="#000000" font-family="sans-serif" font-size="14" lengthAdjust="spacing" textLength="84.3623" x="167.64" y="358.8851">Files Access</text></g><!--entity Tasks Access--><g class="entity" data-entity="Tasks Access" data-source-line="17" data-uid="ent0011" id="entity_Tasks Access"><rect fill="#C0C0C0" height="46.2969" rx="2.5" ry="2.5" style="stroke:#181818;stroke-width:0.5;" width="132.4492" x="478.6" y="325.89"/><rect fill="#C0C0C0" height="10" style="stroke:#181818;stroke-width:0.5;" width="15" x="591.0492" y="330.89"/><rect fill="#C0C0C0" height="2" style="stroke:#181818;stroke-width:0.5;" width="4" x="589.0492" y="332.89"/><rect fill="#C0C0C0" height="2" style="stroke:#181818;stroke-width:0.5;" width="4" x="589.0492" y="336.89"/><text fill="#000000" font-family="sans-serif" font-size="14" lengthAdjust="spacing" textLength="92.4492" x="493.6" y="358.8851">Tasks Access</text></g><!--entity Rules Access--><g class="entity" data-entity="Rules Access" data-source-line="18" data-uid="ent0012" id="entity_Rules Access"><rect fill="#C0C0C0" height="46.2969" rx="2.5" ry="2.5" style="stroke:#181818;stroke-width:0.5;" width="131.0205" x="312.32" y="325.89"/><rect fill="#C0C0C0" height="10" style="stroke:#181818;stroke-width:0.5;" width="15" x="423.3405" y="330.89"/><rect fill="#C0C0C0" height="2" style="stroke:#181818;stroke-width:0.5;" width="4" x="421.3405" y="332.89"/><rect fill="#C0C0C0" height="2" style="stroke:#181818;stroke-width:0.5;" width="4" x="421.3405" y="336.89"/><text fill="#000000" font-family="sans-serif" font-size="14" lengthAdjust="spacing" textLength="91.0205" x="327.32" y="358.8851">Rules Access</text></g><!--entity Storage API--><g class="entity" data-entity="Storage API" data-source-line="21" data-uid="ent0013" id="entity_Storage API"><rect fill="#E0FFFF" height="46.2969" rx="2.5" ry="2.5" style="stroke:#181818;stroke-width:0.5;" width="121.375" x="154.14" y="432.18"/><rect fill="#E0FFFF" height="10" style="stroke:#181818;stroke-width:0.5;" width="15" x="255.515" y="437.18"/><rect fill="#E0FFFF" height="2" style="stroke:#181818;stroke-width:0.5;" width="4" x="253.515" y="439.18"/><rect fill="#E0FFFF" height="2" style="stroke:#181818;stroke-width:0.5;" width="4" x="253.515" y="443.18"/><text fill="#000000" font-family="sans-serif" font-size="14" lengthAdjust="spacing" textLength="81.375" x="169.14" y="465.1751">Storage API</text></g><!--entity Tasks Repo--><g class="entity" data-entity="Tasks Repo" data-source-line="22" data-uid="ent0014" id="entity_Tasks Repo"><rect fill="#E0FFFF" height="46.2969" rx="2.5" ry="2.5" style="stroke:#181818;stroke-width:0.5;" width="120.0693" x="484.79" y="432.18"/><rect fill="#E0FFFF" height="10" style="stroke:#181818;stroke-width:0.5;" width="15" x="584.8593" y="437.18"/><rect fill="#E0FFFF" height="2" style="stroke:#181818;stroke-width:0.5;" width="4" x="582.8593" y="439.18"/><rect fill="#E0FFFF" height="2" style="stroke:#181818;stroke-width:0.5;" width="4" x="582.8593" y="443.18"/><text fill="#000000" font-family="sans-serif" font-size="14" lengthAdjust="spacing" textLength="80.0693" x="499.79" y="465.1751">Tasks Repo</text></g><!--entity Rules Repo--><g class="entity" data-entity="Rules Repo" data-source-line="23" data-uid="ent0015" id="entity_Rules Repo"><rect fill="#E0FFFF" height="46.2969" rx="2.5" ry="2.5" style="stroke:#181818;stroke-width:0.5;" width="118.6406" x="318.51" y="432.18"/><rect fill="#E0FFFF" height="10" style="stroke:#181818;stroke-width:0.5;" width="15" x="417.1506" y="437.18"/><rect fill="#E0FFFF" height="2" style="stroke:#181818;stroke-width:0.5;" width="4" x="415.1506" y="439.18"/><rect fill="#E0FFFF" height="2" style="stroke:#181818;stroke-width:0.5;" width="4" x="415.1506" y="443.18"/><text fill="#000000" font-family="sans-serif" font-size="14" lengthAdjust="spacing" textLength="78.6406" x="333.51" y="465.1751">Rules Repo</text></g><!--entity Messaging--><g class="entity" data-entity="Messaging" data-source-line="26" data-uid="ent0016" id="entity_Messaging"><rect fill="#F8BBD9" height="46.2969" rx="2.5" ry="2.5" style="stroke:#181818;stroke-width:0.5;" width="114.3955" x="607.63" y="113.29"/><rect fill="#F8BBD9" height="10" style="stroke:#181818;stroke-width:0.5;" width="15" x="702.0255" y="118.29"/><rect fill="#F8BBD9" height="2" style="stroke:#181818;stroke-width:0.5;" width="4" x="700.0255" y="120.29"/><rect fill="#F8BBD9" height="2" style="stroke:#181818;stroke-width:0.5;" width="4" x="700.0255" y="124.29"/><text fill="#000000" font-family="sans-serif" font-size="14" lengthAdjust="spacing" textLength="74.3955" x="622.63" y="146.2851">Messaging</text></g><!--link API Client to Feed Manager--><g class="link" data-entity-1="API Client" data-entity-2="Feed Manager" data-source-line="28" data-uid="lnk17" id="link_API Client_Feed Manager"><path d="M103.34,53.77 C104.52,71.27 105.7393,89.3834 106.9093,106.8634" fill="none" id="API Client-to-Feed Manager" style="stroke:#181818;stroke-width:1;"/><polygon fill="#181818" points="107.31,112.85,110.7,103.603,106.9761,107.8612,102.7179,104.1372,107.31,112.85" style="stroke:#181818;stroke-width:1;"/></g><!--link Feed Manager to Validation Engine--><g class="link" data-entity-1="Feed Manager" data-entity-2="Validation Engine" data-source-line="29" data-uid="lnk18" id="link_Feed Manager_Validation Engine"><path d="M113.17,160.07 C116.52,177.57 120.0107,195.7772 123.3607,213.2572" fill="none" id="Feed Manager-to-Validation Engine" style="stroke:#181818;stroke-width:1;"/><polygon fill="#181818" points="124.49,219.15,126.7245,209.558,123.5489,214.2394,118.8675,211.0638,124.49,219.15" style="stroke:#181818;stroke-width:1;"/></g><!--link Feed Manager to Files Access--><g class="link" data-entity-1="Feed Manager" data-entity-2="Files Access" data-source-line="30" data-uid="lnk19" id="link_Feed Manager_Files Access"><path d="M78.18,159.93 C46.87,185.74 6,229.23 29.83,265.89 C56.74,307.28 103.998,326.5701 146.438,336.8301" fill="none" id="Feed Manager-to-Files Access" style="stroke:#181818;stroke-width:1;"/><polygon fill="#181818" points="152.27,338.24,144.4619,332.2371,147.41,337.0651,142.5821,340.0131,152.27,338.24" style="stroke:#181818;stroke-width:1;"/></g><!--link Files Access to Storage API--><g class="link" data-entity-1="Files Access" data-entity-2="Storage API" data-source-line="31" data-uid="lnk20" id="link_Files Access_Storage API"><path d="M214.83,372.67 C214.83,390.16 214.83,408.26 214.83,425.74" fill="none" id="Files Access-to-Storage API" style="stroke:#181818;stroke-width:1;"/><polygon fill="#181818" points="214.83,431.74,218.83,422.74,214.83,426.74,210.83,422.74,214.83,431.74" style="stroke:#181818;stroke-width:1;"/></g><!--link Feed Manager to Task Manager--><g class="link" data-entity-1="Feed Manager" data-entity-2="Task Manager" data-source-line="32" data-uid="lnk21" id="link_Feed Manager_Task Manager"><path d="M179.17,153.17 C190.51,154.03 195.8688,154.4851 207.1988,153.5851" fill="none" id="Feed Manager-to-Task Manager" style="stroke:#181818;stroke-width:1;stroke-dasharray:7,7;"/><polygon fill="#181818" points="213.18,153.11,203.8915,149.8352,208.1957,153.5059,204.525,157.8101,213.18,153.11" style="stroke:#181818;stroke-width:1;"/></g><!--link Task Manager to Feed Manager--><g class="link" data-entity-1="Task Manager" data-entity-2="Feed Manager" data-source-line="46" data-uid="lnk35" id="link_Task Manager_Feed Manager"><path d="M213.18,119.77 C201.85,118.87 196.4924,118.391 185.1524,119.261" fill="none" id="Task Manager-to-Feed Manager" style="stroke:#181818;stroke-width:1;stroke-dasharray:7,7;"/><polygon fill="#181818" points="179.17,119.72,188.4496,123.0198,184.1553,119.3375,187.8377,115.0433,179.17,119.72" style="stroke:#181818;stroke-width:1;"/></g><!--link API Client to Task Manager--><g class="link" data-entity-1="API Client" data-entity-2="Task Manager" data-source-line="33" data-uid="lnk22" id="link_API Client_Task Manager"><path d="M141.1,53.77 C171.46,71.27 208.0911,92.3747 238.4311,109.8547" fill="none" id="API Client-to-Task Manager" style="stroke:#181818;stroke-width:1;"/><polygon fill="#181818" points="243.63,112.85,237.8285,104.8912,239.2976,110.3539,233.8348,111.823,243.63,112.85" style="stroke:#181818;stroke-width:1;"/></g><!--link EisenKan Client to Task Manager--><g class="link" data-entity-1="EisenKan Client" data-entity-2="Task Manager" data-source-line="34" data-uid="lnk23" id="link_EisenKan Client_Task Manager"><path d="M451.96,53.77 C415.73,71.27 371.2134,92.7616 335.0034,110.2416" fill="none" id="EisenKan Client-to-Task Manager" style="stroke:#181818;stroke-width:1;"/><polygon fill="#181818" points="329.6,112.85,339.444,112.5396,334.1028,110.6763,335.9661,105.3352,329.6,112.85" style="stroke:#181818;stroke-width:1;"/></g><!--link EisenKan Admin Client to Task Manager--><g class="link" data-entity-1="EisenKan Admin Client" data-entity-2="Task Manager" data-source-line="35" data-uid="lnk24" id="link_EisenKan Admin Client_Task Manager"><path d="M288.31,53.77 C287.13,71.27 285.9107,89.3834 284.7407,106.8634" fill="none" id="EisenKan Admin Client-to-Task Manager" style="stroke:#181818;stroke-width:1;"/><polygon fill="#181818" points="284.34,112.85,288.9321,104.1372,284.6739,107.8612,280.95,103.603,284.34,112.85" style="stroke:#181818;stroke-width:1;"/></g><!--link Task Manager to Validation Engine--><g class="link" data-entity-1="Task Manager" data-entity-2="Validation Engine" data-source-line="36" data-uid="lnk25" id="link_Task Manager_Validation Engine"><path d="M249.41,160.07 C223.58,177.57 192.9579,198.3055 167.1479,215.7855" fill="none" id="Task Manager-to-Validation Engine" style="stroke:#181818;stroke-width:1;"/><polygon fill="#181818" points="162.18,219.15,171.8749,217.4151,166.3199,216.3462,167.3888,210.7913,162.18,219.15" style="stroke:#181818;stroke-width:1;"/></g><!--link Task Manager to Files Access--><g class="link" data-entity-1="Task Manager" data-entity-2="Files Access" data-source-line="37" data-uid="lnk26" id="link_Task Manager_Files Access"><path d="M275.55,159.98 C262.46,200.51 236.9435,279.5302 223.8935,319.9502" fill="none" id="Task Manager-to-Files Access" style="stroke:#181818;stroke-width:1;"/><polygon fill="#181818" points="222.05,325.66,228.6217,318.3243,223.5862,320.9018,221.0087,315.8663,222.05,325.66" style="stroke:#181818;stroke-width:1;"/></g><!--link Task Manager to Tasks Access--><g class="link" data-entity-1="Task Manager" data-entity-2="Tasks Access" data-source-line="38" data-uid="lnk27" id="link_Task Manager_Tasks Access"><path d="M351.29,160.01 C385.5,173.59 426.06,193.38 456.83,219.59 C492.42,249.92 517.3816,292.5612 531.5816,320.5012" fill="none" id="Task Manager-to-Tasks Access" style="stroke:#181818;stroke-width:1;"/><polygon fill="#181818" points="534.3,325.85,533.7882,316.0144,532.0346,321.3926,526.6564,319.639,534.3,325.85" style="stroke:#181818;stroke-width:1;"/></g><!--link Tasks Access to Tasks Repo--><g class="link" data-entity-1="Tasks Access" data-entity-2="Tasks Repo" data-source-line="39" data-uid="lnk28" id="link_Tasks Access_Tasks Repo"><path d="M544.83,372.67 C544.83,390.16 544.83,408.26 544.83,425.74" fill="none" id="Tasks Access-to-Tasks Repo" style="stroke:#181818;stroke-width:1;"/><polygon fill="#181818" points="544.83,431.74,548.83,422.74,544.83,426.74,540.83,422.74,544.83,431.74" style="stroke:#181818;stroke-width:1;"/></g><!--link Task Manager to Rule Engine--><g class="link" data-entity-1="Task Manager" data-entity-2="Rule Engine" data-source-line="40" data-uid="lnk29" id="link_Task Manager_Rule Engine"><path d="M303.44,160.07 C319.37,177.57 337.2899,197.234 353.2099,214.714" fill="none" id="Task Manager-to-Rule Engine" style="stroke:#181818;stroke-width:1;"/><polygon fill="#181818" points="357.25,219.15,354.1472,209.8027,353.8833,215.4534,348.2326,215.1894,357.25,219.15" style="stroke:#181818;stroke-width:1;"/></g><!--link Rule Engine to Rules Access--><g class="link" data-entity-1="Rule Engine" data-entity-2="Rules Access" data-source-line="41" data-uid="lnk30" id="link_Rule Engine_Rules Access"><path d="M377.83,266.37 C377.83,283.86 377.83,301.97 377.83,319.45" fill="none" id="Rule Engine-to-Rules Access" style="stroke:#181818;stroke-width:1;"/><polygon fill="#181818" points="377.83,325.45,381.83,316.45,377.83,320.45,373.83,316.45,377.83,325.45" style="stroke:#181818;stroke-width:1;"/></g><!--link Rules Access to Rules Repo--><g class="link" data-entity-1="Rules Access" data-entity-2="Rules Repo" data-source-line="42" data-uid="lnk31" id="link_Rules Access_Rules Repo"><path d="M377.83,372.67 C377.83,390.16 377.83,408.26 377.83,425.74" fill="none" id="Rules Access-to-Rules Repo" style="stroke:#181818;stroke-width:1;"/><polygon fill="#181818" points="377.83,431.74,381.83,422.74,377.83,426.74,373.83,422.74,377.83,431.74" style="stroke:#181818;stroke-width:1;"/></g><!--link Task Manager to Notification Manager--><g class="link" data-entity-1="Task Manager" data-entity-2="Notification Manager" data-source-line="43" data-uid="lnk32" id="link_Task Manager_Notification Manager"><path d="M352.47,136.44 C363.74,136.44 369.02,136.44 380.3,136.44" fill="none" id="Task Manager-to-Notification Manager" style="stroke:#181818;stroke-width:1;stroke-dasharray:7,7;"/><polygon fill="#181818" points="386.3,136.44,377.3,132.44,381.3,136.44,377.3,140.44,386.3,136.44" style="stroke:#181818;stroke-width:1;"/></g><!--link Notification Manager to Tasks Access--><g class="link" data-entity-1="Notification Manager" data-entity-2="Tasks Access" data-source-line="44" data-uid="lnk33" id="link_Notification Manager_Tasks Access"><path d="M492.29,159.84 C500.83,176.02 511.84,198.62 518.83,219.59 C530.9,255.85 537.4898,293.8991 541.1598,319.8491" fill="none" id="Notification Manager-to-Tasks Access" style="stroke:#181818;stroke-width:1;"/><polygon fill="#181818" points="542,325.79,544.7003,316.3185,541.2998,320.8393,536.7791,317.4388,542,325.79" style="stroke:#181818;stroke-width:1;"/></g><!--link Notification Manager to Messaging--><g class="link" data-entity-1="Notification Manager" data-entity-2="Messaging" data-source-line="45" data-uid="lnk34" id="link_Notification Manager_Messaging"><path d="M573.05,136.44 C584.52,136.44 589.99,136.44 601.46,136.44" fill="none" id="Notification Manager-to-Messaging" style="stroke:#181818;stroke-width:1;"/><polygon fill="#181818" points="607.46,136.44,598.46,132.44,602.46,136.44,598.46,140.44,607.46,136.44" style="stroke:#181818;stroke-width:1;"/></g><!--link Notification Manager to Rule Engine--><!--link Rule Engine to Files Access--><!--link Rule Engine to Tasks Access--><!--SRC=[ZPHDRzim38Rl_XK4TkZ9Gou3cak097MBeSjMT1_04FIWsgnDH9O2IrsHVp_ATWf9beCcbo1yHBuaN-aAjf9GMGCvR3gg6mjt7QA2ZIWFTQTVLPMLkZrgnH3irmzVnmDFy6cvA8hbmWyNP53T2_KXPbsrD2MpAzW99MhiF4b_KKhzDgFf5h4wd-4yj_nPBdtWbp27Yy1tRUc5Ic59god8YWfLaqBMywCJgiOP8O-l4aUqFxt-iWWw_oCaLKEHcE8Qwx94Os1xvbtxtrptkTNvZggAazzruZGt1P9enYISTxjmttWA5m4dVmgmiXjXnRCm-Au8jYSHEAGQ2TZ_jBhZyG4RXNCK2pT3Bpo8UCIZJaK71M6Kw_-s9CbINz_e5k58wa2cWL9BtVajx5YwuCdMRhBNcyqDRo_mR9wl8iDaaNzwOhgf91RCF8jMq1F-EE8KdrUHDHDIe_ZaVbs4mWkMGiERCTjw0ejQJn21txB8VXxHhpkPmRzFMNYxtkDUXT2_7f6iuAQVlFVPp7EGQcg6NFbEJ1KE7SWMVz26-YJj-UqJ5co3O0JxNU8_bF16jkd_insL1_ur82SGKaA5HrGLS0P7UBEQ5Rbl-4r1zPH7W_RLYBvH_AYQOTpZOpaeCawI4wXV7Dt6U_HKH9QQvO8T_0S0]--></g></svg>