<svg xmlns="http://www.w3.org/2000/svg" xmlns:xlink="http://www.w3.org/1999/xlink" contentStyleType="text/css" data-diagram-type="MINDMAP" height="866px" preserveAspectRatio="none" style="width:1255px;height:866px;background:#FFFFFF;" version="1.1" viewBox="0 0 1255 866" width="1255px" zoomAndPan="magnify"><defs/><g><rect fill="#F1F1F1" height="36.2969" rx="12.5" ry="12.5" style="stroke:#181818;stroke-width:1.5;" width="149.1855" x="10" y="414.0781"/><text fill="#000000" font-family="sans-serif" font-size="14" lengthAdjust="spacing" textLength="129.1855" x="20" y="437.0732">Kanban volatilities</text><rect fill="#F1F1F1" height="36.2969" rx="12.5" ry="12.5" style="stroke:#181818;stroke-width:1.5;" width="279.7314" x="209.1855" y="20"/><text fill="#000000" font-family="sans-serif" font-size="14" lengthAdjust="spacing" textLength="259.7314" x="219.1855" y="42.9951">notification customization, e.g. email</text><rect fill="#F1F1F1" height="36.2969" rx="12.5" ry="12.5" style="stroke:#181818;stroke-width:1.5;" width="306.4941" x="538.917" y="20"/><text fill="#000000" font-family="sans-serif" font-size="14" lengthAdjust="spacing" textLength="286.4941" x="548.917" y="42.9951">affects: component Notification Manager</text><path d="M488.917,38.1484 L498.917,38.1484 C513.917,38.1484 513.917,38.1484 528.917,38.1484 L538.917,38.1484" fill="none" style="stroke:#181818;stroke-width:1;"/><path d="M159.1855,432.2266 L169.1855,432.2266 C184.1855,432.2266 184.1855,38.1484 199.1855,38.1484 L209.1855,38.1484" fill="none" style="stroke:#181818;stroke-width:1;"/><rect fill="#F1F1F1" height="36.2969" rx="12.5" ry="12.5" style="stroke:#181818;stroke-width:1.5;" width="348.7266" x="209.1855" y="76.2969"/><text fill="#000000" font-family="sans-serif" font-size="14" lengthAdjust="spacing" textLength="328.7266" x="219.1855" y="99.292">customize rules and triggers, e.g. Scrum, SAFe</text><rect fill="#F1F1F1" height="36.2969" rx="12.5" ry="12.5" style="stroke:#181818;stroke-width:1.5;" width="243.8838" x="607.9121" y="76.2969"/><text fill="#000000" font-family="sans-serif" font-size="14" lengthAdjust="spacing" textLength="223.8838" x="617.9121" y="99.292">affects: component Rule Engine</text><path d="M557.9121,94.4453 L567.9121,94.4453 C582.9121,94.4453 582.9121,94.4453 597.9121,94.4453 L607.9121,94.4453" fill="none" style="stroke:#181818;stroke-width:1;"/><path d="M159.1855,432.2266 L169.1855,432.2266 C184.1855,432.2266 184.1855,94.4453 199.1855,94.4453 L209.1855,94.4453" fill="none" style="stroke:#181818;stroke-width:1;"/><rect fill="#F1F1F1" height="36.2969" rx="12.5" ry="12.5" style="stroke:#181818;stroke-width:1.5;" width="514.7236" x="209.1855" y="132.5938"/><text fill="#000000" font-family="sans-serif" font-size="14" lengthAdjust="spacing" textLength="494.7236" x="219.1855" y="155.5889">automation, e.g. automated status transitions, external data ingestion</text><rect fill="#F1F1F1" height="36.2969" rx="12.5" ry="12.5" style="stroke:#181818;stroke-width:1.5;" width="393.9189" x="773.9092" y="132.5938"/><text fill="#000000" font-family="sans-serif" font-size="14" lengthAdjust="spacing" textLength="373.9189" x="783.9092" y="155.5889">affects: component Task Manager and Feed Manager</text><path d="M723.9092,150.7422 L733.9092,150.7422 C748.9092,150.7422 748.9092,150.7422 763.9092,150.7422 L773.9092,150.7422" fill="none" style="stroke:#181818;stroke-width:1;"/><path d="M159.1855,432.2266 L169.1855,432.2266 C184.1855,432.2266 184.1855,150.7422 199.1855,150.7422 L209.1855,150.7422" fill="none" style="stroke:#181818;stroke-width:1;"/><rect fill="#F1F1F1" height="36.2969" rx="12.5" ry="12.5" style="stroke:#181818;stroke-width:1.5;" width="255.915" x="209.1855" y="188.8906"/><text fill="#000000" font-family="sans-serif" font-size="14" lengthAdjust="spacing" textLength="235.915" x="219.1855" y="211.8857">versioning incl. conflict resolution</text><rect fill="#F1F1F1" height="36.2969" rx="12.5" ry="12.5" style="stroke:#181818;stroke-width:1.5;" width="238.9893" x="515.1006" y="188.8906"/><text fill="#000000" font-family="sans-serif" font-size="14" lengthAdjust="spacing" textLength="218.9893" x="525.1006" y="211.8857">affects: component Rules Repo</text><path d="M465.1006,207.0391 L475.1006,207.0391 C490.1006,207.0391 490.1006,207.0391 505.1006,207.0391 L515.1006,207.0391" fill="none" style="stroke:#181818;stroke-width:1;"/><path d="M159.1855,432.2266 L169.1855,432.2266 C184.1855,432.2266 184.1855,207.0391 199.1855,207.0391 L209.1855,207.0391" fill="none" style="stroke:#181818;stroke-width:1;"/><rect fill="#F1F1F1" height="36.2969" rx="12.5" ry="12.5" style="stroke:#181818;stroke-width:1.5;" width="154.0049" x="209.1855" y="245.1875"/><text fill="#000000" font-family="sans-serif" font-size="14" lengthAdjust="spacing" textLength="134.0049" x="219.1855" y="268.1826">schema migrations</text><rect fill="#F1F1F1" height="36.2969" rx="12.5" ry="12.5" style="stroke:#181818;stroke-width:1.5;" width="374.0059" x="413.1904" y="245.1875"/><text fill="#000000" font-family="sans-serif" font-size="14" lengthAdjust="spacing" textLength="354.0059" x="423.1904" y="268.1826">affects: component Task Manager and Tasks Repo</text><path d="M363.1904,263.3359 L373.1904,263.3359 C388.1904,263.3359 388.1904,263.3359 403.1904,263.3359 L413.1904,263.3359" fill="none" style="stroke:#181818;stroke-width:1;"/><path d="M159.1855,432.2266 L169.1855,432.2266 C184.1855,432.2266 184.1855,263.3359 199.1855,263.3359 L209.1855,263.3359" fill="none" style="stroke:#181818;stroke-width:1;"/><rect fill="#F1F1F1" height="36.2969" rx="12.5" ry="12.5" style="stroke:#181818;stroke-width:1.5;" width="277.0586" x="209.1855" y="301.4844"/><text fill="#000000" font-family="sans-serif" font-size="14" lengthAdjust="spacing" textLength="257.0586" x="219.1855" y="324.4795">from local to distributed deployment</text><rect fill="#F1F1F1" height="36.2969" rx="12.5" ry="12.5" style="stroke:#181818;stroke-width:1.5;" width="251.3691" x="536.2441" y="301.4844"/><text fill="#000000" font-family="sans-serif" font-size="14" lengthAdjust="spacing" textLength="231.3691" x="546.2441" y="324.4795">affects: component Rules Access</text><path d="M486.2441,319.6328 L496.2441,319.6328 C511.2441,319.6328 511.2441,319.6328 526.2441,319.6328 L536.2441,319.6328" fill="none" style="stroke:#181818;stroke-width:1;"/><path d="M159.1855,432.2266 L169.1855,432.2266 C184.1855,432.2266 184.1855,319.6328 199.1855,319.6328 L209.1855,319.6328" fill="none" style="stroke:#181818;stroke-width:1;"/><rect fill="#F1F1F1" height="36.2969" rx="12.5" ry="12.5" style="stroke:#181818;stroke-width:1.5;" width="424.4141" x="209.1855" y="357.7813"/><text fill="#000000" font-family="sans-serif" font-size="14" lengthAdjust="spacing" textLength="404.4141" x="219.1855" y="380.7764">integration into 3rd party systems like JIRA, GitHub, Slack</text><rect fill="#F1F1F1" height="36.2969" rx="12.5" ry="12.5" style="stroke:#181818;stroke-width:1.5;" width="560.0117" x="683.5996" y="357.7813"/><text fill="#000000" font-family="sans-serif" font-size="14" lengthAdjust="spacing" textLength="540.0117" x="693.5996" y="380.7764">affects: component Feed Manager and Notification Manager resp. Messaging</text><path d="M633.5996,375.9297 L643.5996,375.9297 C658.5996,375.9297 658.5996,375.9297 673.5996,375.9297 L683.5996,375.9297" fill="none" style="stroke:#181818;stroke-width:1;"/><path d="M159.1855,432.2266 L169.1855,432.2266 C184.1855,432.2266 184.1855,375.9297 199.1855,375.9297 L209.1855,375.9297" fill="none" style="stroke:#181818;stroke-width:1;"/><rect fill="#F1F1F1" height="36.2969" rx="12.5" ry="12.5" style="stroke:#181818;stroke-width:1.5;" width="260.5703" x="209.1855" y="414.0781"/><text fill="#000000" font-family="sans-serif" font-size="14" lengthAdjust="spacing" textLength="240.5703" x="219.1855" y="437.0732">data customization, e.g. card type</text><rect fill="#F1F1F1" height="36.2969" rx="12.5" ry="12.5" style="stroke:#181818;stroke-width:1.5;" width="91.0732" x="519.7559" y="414.0781"/><text fill="#000000" font-family="sans-serif" font-size="14" lengthAdjust="spacing" textLength="71.0732" x="529.7559" y="437.0732">affects: UI</text><path d="M469.7559,432.2266 L479.7559,432.2266 C494.7559,432.2266 494.7559,432.2266 509.7559,432.2266 L519.7559,432.2266" fill="none" style="stroke:#181818;stroke-width:1;"/><path d="M159.1855,432.2266 L169.1855,432.2266 C184.1855,432.2266 184.1855,432.2266 199.1855,432.2266 L209.1855,432.2266" fill="none" style="stroke:#181818;stroke-width:1;"/><rect fill="#F1F1F1" height="36.2969" rx="12.5" ry="12.5" style="stroke:#181818;stroke-width:1.5;" width="442.9258" x="209.1855" y="470.375"/><text fill="#000000" font-family="sans-serif" font-size="14" lengthAdjust="spacing" textLength="422.9258" x="219.1855" y="493.3701">view customization, e.g. filtering/grouping or visual theming</text><rect fill="#F1F1F1" height="36.2969" rx="12.5" ry="12.5" style="stroke:#181818;stroke-width:1.5;" width="91.0732" x="702.1113" y="470.375"/><text fill="#000000" font-family="sans-serif" font-size="14" lengthAdjust="spacing" textLength="71.0732" x="712.1113" y="493.3701">affects: UI</text><path d="M652.1113,488.5234 L662.1113,488.5234 C677.1113,488.5234 677.1113,488.5234 692.1113,488.5234 L702.1113,488.5234" fill="none" style="stroke:#181818;stroke-width:1;"/><path d="M159.1855,432.2266 L169.1855,432.2266 C184.1855,432.2266 184.1855,488.5234 199.1855,488.5234 L209.1855,488.5234" fill="none" style="stroke:#181818;stroke-width:1;"/><rect fill="#F1F1F1" height="36.2969" rx="12.5" ry="12.5" style="stroke:#181818;stroke-width:1.5;" width="340.0996" x="209.1855" y="526.6719"/><text fill="#000000" font-family="sans-serif" font-size="14" lengthAdjust="spacing" textLength="320.0996" x="219.1855" y="549.667">usage customization, e.g. keyboard shortcuts</text><rect fill="#F1F1F1" height="36.2969" rx="12.5" ry="12.5" style="stroke:#181818;stroke-width:1.5;" width="91.0732" x="599.2852" y="526.6719"/><text fill="#000000" font-family="sans-serif" font-size="14" lengthAdjust="spacing" textLength="71.0732" x="609.2852" y="549.667">affects: UI</text><path d="M549.2852,544.8203 L559.2852,544.8203 C574.2852,544.8203 574.2852,544.8203 589.2852,544.8203 L599.2852,544.8203" fill="none" style="stroke:#181818;stroke-width:1;"/><path d="M159.1855,432.2266 L169.1855,432.2266 C184.1855,432.2266 184.1855,544.8203 199.1855,544.8203 L209.1855,544.8203" fill="none" style="stroke:#181818;stroke-width:1;"/><rect fill="#F1F1F1" height="36.2969" rx="12.5" ry="12.5" style="stroke:#181818;stroke-width:1.5;" width="198.1582" x="209.1855" y="582.9688"/><text fill="#000000" font-family="sans-serif" font-size="14" lengthAdjust="spacing" textLength="178.1582" x="219.1855" y="605.9639">from single- to multi-user</text><rect fill="#F1F1F1" height="36.2969" rx="12.5" ry="12.5" style="stroke:#181818;stroke-width:1.5;" width="80.1289" x="457.3438" y="582.9688"/><text fill="#000000" font-family="sans-serif" font-size="14" lengthAdjust="spacing" textLength="60.1289" x="467.3438" y="605.9639">won't do</text><path d="M407.3438,601.1172 L417.3438,601.1172 C432.3438,601.1172 432.3438,601.1172 447.3438,601.1172 L457.3438,601.1172" fill="none" style="stroke:#181818;stroke-width:1;"/><path d="M159.1855,432.2266 L169.1855,432.2266 C184.1855,432.2266 184.1855,601.1172 199.1855,601.1172 L209.1855,601.1172" fill="none" style="stroke:#181818;stroke-width:1;"/><rect fill="#F1F1F1" height="36.2969" rx="12.5" ry="12.5" style="stroke:#181818;stroke-width:1.5;" width="380.2607" x="209.1855" y="639.2656"/><text fill="#000000" font-family="sans-serif" font-size="14" lengthAdjust="spacing" textLength="360.2607" x="219.1855" y="662.2607">from single-board to multiboard with dependencies</text><rect fill="#F1F1F1" height="36.2969" rx="12.5" ry="12.5" style="stroke:#181818;stroke-width:1.5;" width="80.1289" x="639.4463" y="639.2656"/><text fill="#000000" font-family="sans-serif" font-size="14" lengthAdjust="spacing" textLength="60.1289" x="649.4463" y="662.2607">won't do</text><path d="M589.4463,657.4141 L599.4463,657.4141 C614.4463,657.4141 614.4463,657.4141 629.4463,657.4141 L639.4463,657.4141" fill="none" style="stroke:#181818;stroke-width:1;"/><path d="M159.1855,432.2266 L169.1855,432.2266 C184.1855,432.2266 184.1855,657.4141 199.1855,657.4141 L209.1855,657.4141" fill="none" style="stroke:#181818;stroke-width:1;"/><rect fill="#F1F1F1" height="36.2969" rx="12.5" ry="12.5" style="stroke:#181818;stroke-width:1.5;" width="154.251" x="209.1855" y="695.5625"/><text fill="#000000" font-family="sans-serif" font-size="14" lengthAdjust="spacing" textLength="134.251" x="219.1855" y="718.5576">data volume grows</text><rect fill="#F1F1F1" height="36.2969" rx="12.5" ry="12.5" style="stroke:#181818;stroke-width:1.5;" width="478.9238" x="413.4365" y="695.5625"/><text fill="#000000" font-family="sans-serif" font-size="14" lengthAdjust="spacing" textLength="458.9238" x="423.4365" y="718.5576">keep limited by locally available resources (memory and latency)</text><path d="M363.4365,713.7109 L373.4365,713.7109 C388.4365,713.7109 388.4365,713.7109 403.4365,713.7109 L413.4365,713.7109" fill="none" style="stroke:#181818;stroke-width:1;"/><path d="M159.1855,432.2266 L169.1855,432.2266 C184.1855,432.2266 184.1855,713.7109 199.1855,713.7109 L209.1855,713.7109" fill="none" style="stroke:#181818;stroke-width:1;"/><rect fill="#F1F1F1" height="36.2969" rx="12.5" ry="12.5" style="stroke:#181818;stroke-width:1.5;" width="306.8428" x="209.1855" y="751.8594"/><text fill="#000000" font-family="sans-serif" font-size="14" lengthAdjust="spacing" textLength="286.8428" x="219.1855" y="774.8545">scaling personal =&gt; team =&gt; enterprise</text><rect fill="#F1F1F1" height="36.2969" rx="12.5" ry="12.5" style="stroke:#181818;stroke-width:1.5;" width="80.1289" x="566.0283" y="751.8594"/><text fill="#000000" font-family="sans-serif" font-size="14" lengthAdjust="spacing" textLength="60.1289" x="576.0283" y="774.8545">won't do</text><path d="M516.0283,770.0078 L526.0283,770.0078 C541.0283,770.0078 541.0283,770.0078 556.0283,770.0078 L566.0283,770.0078" fill="none" style="stroke:#181818;stroke-width:1;"/><path d="M159.1855,432.2266 L169.1855,432.2266 C184.1855,432.2266 184.1855,770.0078 199.1855,770.0078 L209.1855,770.0078" fill="none" style="stroke:#181818;stroke-width:1;"/><rect fill="#F1F1F1" height="36.2969" rx="12.5" ry="12.5" style="stroke:#181818;stroke-width:1.5;" width="277.7422" x="209.1855" y="808.1563"/><text fill="#000000" font-family="sans-serif" font-size="14" lengthAdjust="spacing" textLength="257.7422" x="219.1855" y="831.1514">turns into project management suite</text><rect fill="#F1F1F1" height="36.2969" rx="12.5" ry="12.5" style="stroke:#181818;stroke-width:1.5;" width="80.1289" x="536.9277" y="808.1563"/><text fill="#000000" font-family="sans-serif" font-size="14" lengthAdjust="spacing" textLength="60.1289" x="546.9277" y="831.1514">won't do</text><path d="M486.9277,826.3047 L496.9277,826.3047 C511.9277,826.3047 511.9277,826.3047 526.9277,826.3047 L536.9277,826.3047" fill="none" style="stroke:#181818;stroke-width:1;"/><path d="M159.1855,432.2266 L169.1855,432.2266 C184.1855,432.2266 184.1855,826.3047 199.1855,826.3047 L209.1855,826.3047" fill="none" style="stroke:#181818;stroke-width:1;"/><!--SRC=[ZLHTKzim47pthxYtGeQaBIsT3ZFjG4kX1D8o2V0kosUZHXyUwPJW_lgUP38949W-9PRlLdkxUpuA93mPPIiZsc805yAMmiB2QK5AAr8OYi40h2DLAybdpeACWPnHV_FJ7k2e6G4QeJHN3a3KDKeAXo2TQPr5I_1hitiYh6ZG9zGL48AF6WC8Mm5vrV3hy80xapwQFPWTd-9Bw5FkXH-sKJQLW8YCkKdjuG0hu5af1hv2sA1IHRhbdj1ReQ4I943P1aDwyz9broBCLoDalgV8m1ipBPWxzpCGWqazubvRQoK9F0QduslWqwp255kNa8AyOrN1gCRdSS9_Sqe7QvpQEmFQIPwH75GgiCHbJ7fKs6hN6SPudT6nb1Xo3fGbVA2J_Zluu2jeEK4TX2uGcW1QpH76vzFZFJXJz3EMx9uMSlxI5Pi2PlRRqfB4QqSmOHg2ZMuIbspOjYnAmQIeQvyavkOy-wDmkRMhLfgJmDXl6-zYcmnqdij3JCAn5Vsrpm0ZCyAjY7FiIfUuX3ldIKOAs_gpFO71DGwJGIPgKiCOSfm6i7Js3K7bdfRsoAlw_ccfw2wPYhP2A_lLVOoGDUFbZWQ1nrps5NF4bdqpAeMYxFgmw0x4WfTQbBnUARlHSmfWnw1nlijEyJU2x-bs-xGAdJHhEVykxTENhq0eJFfbcz6tNWLyHeYYjw6FKklT7nO6JBOyfH92P4gFUuvukDNdghZImjBDv7ArTV1-jFzk_s1qK2A9_PqRExTkQNFO54z1ok1kiNDsTGdzEEjjuERTOim3S-HjgZk4twpZ-EHYTS2Vc8NopkPr6TzErWMVFWw_AO8PUgO1jvFY16l1hd27T1MBmbPVdmu_5vV2Df5dEsH5Yk-ESNt7xsR_0000]--></g></svg>